<svg width="36" height="36" viewBox="0 0 36 36" fill="none" xmlns="http://www.w3.org/2000/svg">
<circle cx="18" cy="18" r="17.5" fill="#FF1D3A" fill-opacity="0.99" stroke="#8F8F8F"/>
<path d="M16.04 15.328C15.624 14.88 15.2187 14.5813 14.824 14.432C14.44 14.2827 14.0507 14.208 13.656 14.208C13.0693 14.208 12.536 14.3147 12.056 14.528C11.5867 14.7307 11.1813 15.0187 10.84 15.392C10.4987 15.7547 10.232 16.1813 10.04 16.672C9.85867 17.1627 9.768 17.6907 9.768 18.256C9.768 18.864 9.85867 19.424 10.04 19.936C10.232 20.448 10.4987 20.8907 10.84 21.264C11.1813 21.6373 11.5867 21.9307 12.056 22.144C12.536 22.3573 13.0693 22.464 13.656 22.464C14.1147 22.464 14.5573 22.3573 14.984 22.144C15.4213 21.92 15.8267 21.568 16.2 21.088L17.864 22.272C17.352 22.976 16.728 23.488 15.992 23.808C15.256 24.128 14.472 24.288 13.64 24.288C12.7653 24.288 11.96 24.1493 11.224 23.872C10.4987 23.584 9.86933 23.184 9.336 22.672C8.81333 22.1493 8.40267 21.5253 8.104 20.8C7.80533 20.0747 7.656 19.2693 7.656 18.384C7.656 17.4773 7.80533 16.656 8.104 15.92C8.40267 15.1733 8.81333 14.5387 9.336 14.016C9.86933 13.4933 10.4987 13.0933 11.224 12.816C11.96 12.528 12.7653 12.384 13.64 12.384C14.408 12.384 15.1173 12.5227 15.768 12.8C16.4293 13.0667 17.0427 13.5253 17.608 14.176L16.04 15.328ZM19.2171 12.672H23.1531C23.6971 12.672 24.2198 12.7253 24.7211 12.832C25.2331 12.928 25.6865 13.0987 26.0811 13.344C26.4758 13.5893 26.7905 13.92 27.0251 14.336C27.2598 14.752 27.3771 15.28 27.3771 15.92C27.3771 16.7413 27.1478 17.4293 26.6891 17.984C26.2411 18.5387 25.5958 18.8747 24.7531 18.992L27.7611 24H25.3291L22.7051 19.2H21.2331V24H19.2171V12.672ZM22.8011 17.472C23.0891 17.472 23.3771 17.4613 23.6651 17.44C23.9531 17.408 24.2145 17.344 24.4491 17.248C24.6945 17.1413 24.8918 16.9867 25.0411 16.784C25.1905 16.5707 25.2651 16.2773 25.2651 15.904C25.2651 15.5733 25.1958 15.3067 25.0571 15.104C24.9185 14.9013 24.7371 14.752 24.5131 14.656C24.2891 14.5493 24.0385 14.48 23.7611 14.448C23.4945 14.416 23.2331 14.4 22.9771 14.4H21.2331V17.472H22.8011Z" fill="white"/>
</svg>
