<svg width="36" height="36" viewBox="0 0 36 36" fill="none" xmlns="http://www.w3.org/2000/svg">
<circle cx="18" cy="18" r="17.5" fill="#007060" stroke="#8F8F8F"/>
<path d="M9.264 12.672H11.28V22.176H16.096V24H9.264V12.672ZM25.3369 15.328C24.9209 14.88 24.5155 14.5813 24.1209 14.432C23.7369 14.2827 23.3475 14.208 22.9529 14.208C22.3662 14.208 21.8329 14.3147 21.3529 14.528C20.8835 14.7307 20.4782 15.0187 20.1369 15.392C19.7955 15.7547 19.5289 16.1813 19.3369 16.672C19.1555 17.1627 19.0649 17.6907 19.0649 18.256C19.0649 18.864 19.1555 19.424 19.3369 19.936C19.5289 20.448 19.7955 20.8907 20.1369 21.264C20.4782 21.6373 20.8835 21.9307 21.3529 22.144C21.8329 22.3573 22.3662 22.464 22.9529 22.464C23.4115 22.464 23.8542 22.3573 24.2809 22.144C24.7182 21.92 25.1235 21.568 25.4969 21.088L27.1609 22.272C26.6489 22.976 26.0249 23.488 25.2889 23.808C24.5529 24.128 23.7689 24.288 22.9369 24.288C22.0622 24.288 21.2569 24.1493 20.5209 23.872C19.7955 23.584 19.1662 23.184 18.6329 22.672C18.1102 22.1493 17.6995 21.5253 17.4009 20.8C17.1022 20.0747 16.9529 19.2693 16.9529 18.384C16.9529 17.4773 17.1022 16.656 17.4009 15.92C17.6995 15.1733 18.1102 14.5387 18.6329 14.016C19.1662 13.4933 19.7955 13.0933 20.5209 12.816C21.2569 12.528 22.0622 12.384 22.9369 12.384C23.7049 12.384 24.4142 12.5227 25.0649 12.8C25.7262 13.0667 26.3395 13.5253 26.9049 14.176L25.3369 15.328Z" fill="white"/>
</svg>
