<svg width="36" height="36" viewBox="0 0 36 36" fill="none" xmlns="http://www.w3.org/2000/svg">
<circle cx="18" cy="18" r="17.5" fill="#E29B00" stroke="#8F8F8F"/>
<path d="M6.952 12.672H9.272L12.36 21.232L15.544 12.672H17.72L13.144 24H11.4L6.952 12.672ZM28.0079 19.84C28.0079 20.5227 27.8905 21.1413 27.6559 21.696C27.4212 22.24 27.1012 22.704 26.6959 23.088C26.2905 23.472 25.8105 23.7707 25.2559 23.984C24.7012 24.1867 24.0985 24.288 23.4479 24.288C22.7972 24.288 22.1945 24.1867 21.6399 23.984C21.0852 23.7707 20.5999 23.472 20.1839 23.088C19.7785 22.704 19.4585 22.24 19.2239 21.696C18.9999 21.1413 18.8879 20.5227 18.8879 19.84V12.672H20.9039V19.776C20.9039 20.0533 20.9465 20.3467 21.0319 20.656C21.1172 20.9547 21.2559 21.232 21.4479 21.488C21.6505 21.744 21.9119 21.9573 22.2319 22.128C22.5625 22.288 22.9679 22.368 23.4479 22.368C23.9279 22.368 24.3279 22.288 24.6479 22.128C24.9785 21.9573 25.2399 21.744 25.4319 21.488C25.6345 21.232 25.7785 20.9547 25.8639 20.656C25.9492 20.3467 25.9919 20.0533 25.9919 19.776V12.672H28.0079V19.84Z" fill="white"/>
</svg>
