<svg width="183" height="60" viewBox="0 0 183 60" fill="none" xmlns="http://www.w3.org/2000/svg">
<path d="M17.22 29.48C17.7 30.72 18.39 31.36 19.29 31.4V32C18.49 31.94 17.42 31.91 16.08 31.91C14.36 31.91 13.08 31.94 12.24 32V31.4C13 31.36 13.54 31.27 13.86 31.13C14.2 30.97 14.37 30.69 14.37 30.29C14.37 29.95 14.25 29.48 14.01 28.88L12.18 23.96H4.91996L3.68996 27.14C3.28996 28.22 3.08996 29.04 3.08996 29.6C3.08996 30.22 3.29996 30.67 3.71996 30.95C4.15996 31.23 4.81996 31.38 5.69996 31.4V32C4.55996 31.94 3.40996 31.91 2.24996 31.91C1.34996 31.91 0.599961 31.94 -3.9069e-05 32V31.4C0.999961 31.16 1.78996 30.29 2.36996 28.79L9.41996 10.61H9.89996L17.22 29.48ZM11.94 23.36L8.57996 14.39L5.15996 23.36H11.94ZM38.6064 14.36C37.9064 14.4 37.3864 14.51 37.0464 14.69C36.7064 14.85 36.4764 15.13 36.3564 15.53C36.2364 15.91 36.1764 16.48 36.1764 17.24V32.15H35.4864L23.4864 15.53V28.52C23.4864 29.3 23.5464 29.88 23.6664 30.26C23.8064 30.64 24.0664 30.92 24.4464 31.1C24.8264 31.26 25.4164 31.36 26.2164 31.4V32C25.4964 31.94 24.4764 31.91 23.1564 31.91C21.9564 31.91 21.0264 31.94 20.3664 32V31.4C21.0664 31.36 21.5864 31.26 21.9264 31.1C22.2664 30.92 22.4964 30.64 22.6164 30.26C22.7364 29.86 22.7964 29.28 22.7964 28.52V16.94C22.7964 16.18 22.7364 15.63 22.6164 15.29C22.4964 14.95 22.2664 14.72 21.9264 14.6C21.6064 14.48 21.0864 14.4 20.3664 14.36V13.76C21.0264 13.82 21.9564 13.85 23.1564 13.85C24.2364 13.85 25.1564 13.82 25.9164 13.76L35.4864 27.08V17.24C35.4864 16.46 35.4164 15.88 35.2764 15.5C35.1564 15.12 34.9064 14.85 34.5264 14.69C34.1464 14.51 33.5564 14.4 32.7564 14.36V13.76C33.4764 13.82 34.4964 13.85 35.8164 13.85C37.0164 13.85 37.9464 13.82 38.6064 13.76V14.36ZM57.5536 13.76C57.4136 15.08 57.3436 16.26 57.3436 17.3C57.3436 18.34 57.3736 19.16 57.4336 19.76H56.7436C56.6236 18.36 56.4336 17.29 56.1736 16.55C55.9136 15.81 55.4936 15.28 54.9136 14.96C54.3336 14.62 53.5036 14.45 52.4236 14.45H50.5036V28.52C50.5036 29.36 50.5836 29.97 50.7436 30.35C50.9036 30.73 51.1836 30.99 51.5836 31.13C51.9836 31.27 52.6336 31.36 53.5336 31.4V32C52.4936 31.94 51.0236 31.91 49.1236 31.91C47.1236 31.91 45.6436 31.94 44.6836 32V31.4C45.5836 31.36 46.2336 31.27 46.6336 31.13C47.0336 30.99 47.3136 30.73 47.4736 30.35C47.6336 29.97 47.7136 29.36 47.7136 28.52V14.45H45.7936C44.7136 14.45 43.8836 14.62 43.3036 14.96C42.7236 15.28 42.3036 15.81 42.0436 16.55C41.7836 17.29 41.5936 18.36 41.4736 19.76H40.7836C40.8436 19.12 40.8736 18.3 40.8736 17.3C40.8736 16.26 40.8036 15.08 40.6636 13.76C42.3236 13.82 45.1436 13.85 49.1236 13.85C53.0836 13.85 55.8936 13.82 57.5536 13.76ZM73.1064 29.48C73.6464 30.72 74.3364 31.36 75.1764 31.4V32C74.3764 31.94 73.3064 31.91 71.9664 31.91C70.2464 31.91 68.9664 31.94 68.1264 32V31.4C68.8664 31.36 69.4064 31.26 69.7464 31.1C70.1064 30.94 70.2864 30.67 70.2864 30.29C70.2864 29.97 70.1464 29.5 69.8664 28.88L68.3364 25.46H61.0464L60.0264 27.71C59.6864 28.49 59.5164 29.13 59.5164 29.63C59.5164 30.15 59.6964 30.56 60.0564 30.86C60.4364 31.14 61.0364 31.32 61.8564 31.4V32C61.2564 31.94 60.3464 31.91 59.1264 31.91C57.9064 31.91 57.0364 31.94 56.5164 32V31.4C57.0564 31.26 57.5164 30.96 57.8964 30.5C58.2764 30.02 58.6364 29.39 58.9764 28.61L65.6064 13.61H66.0864L73.1064 29.48ZM68.0964 24.86L64.7064 17.24L61.2864 24.86H68.0964ZM94.0528 30.74C93.6728 31.28 93.2328 31.7 92.7328 32C92.2528 32.28 91.6728 32.42 90.9928 32.42C89.3128 32.42 88.2828 31.66 87.9028 30.14L86.9728 26.39C86.6928 25.27 86.2728 24.52 85.7128 24.14C85.1728 23.76 84.3628 23.57 83.2828 23.57H81.5728V28.82C81.5728 29.58 81.6328 30.13 81.7528 30.47C81.8728 30.81 82.0928 31.04 82.4128 31.16C82.7528 31.28 83.2828 31.36 84.0028 31.4V32C83.0828 31.94 81.8128 31.91 80.1928 31.91C78.4728 31.91 77.1928 31.94 76.3528 32V31.4C77.0728 31.36 77.5928 31.28 77.9128 31.16C78.2528 31.04 78.4828 30.81 78.6028 30.47C78.7228 30.13 78.7828 29.58 78.7828 28.82V16.94C78.7828 16.18 78.7228 15.63 78.6028 15.29C78.4828 14.95 78.2528 14.72 77.9128 14.6C77.5928 14.48 77.0728 14.4 76.3528 14.36V13.76C77.1928 13.82 78.4128 13.85 80.0128 13.85L83.0728 13.82C83.4128 13.8 83.8028 13.79 84.2428 13.79C86.4828 13.79 88.1928 14.21 89.3728 15.05C90.5728 15.89 91.1728 16.98 91.1728 18.32C91.1728 19.48 90.7028 20.54 89.7628 21.5C88.8428 22.46 87.3228 23.07 85.2028 23.33C85.6028 23.37 85.9428 23.41 86.2228 23.45C87.2828 23.61 88.1228 23.93 88.7428 24.41C89.3628 24.89 89.8028 25.66 90.0628 26.72L90.7228 29.45C90.8828 30.15 91.0528 30.65 91.2328 30.95C91.4328 31.23 91.6828 31.37 91.9828 31.37C92.4828 31.37 93.0328 31.03 93.6328 30.35L94.0528 30.74ZM83.4928 14.36C82.9528 14.36 82.5428 14.43 82.2628 14.57C82.0028 14.71 81.8228 14.96 81.7228 15.32C81.6228 15.68 81.5728 16.22 81.5728 16.94V22.97H83.5828C85.3428 22.97 86.5428 22.6 87.1828 21.86C87.8428 21.1 88.1728 20.03 88.1728 18.65C88.1728 17.21 87.8028 16.14 87.0628 15.44C86.3428 14.72 85.1528 14.36 83.4928 14.36ZM104.256 13.34C105.236 13.34 106.066 13.51 106.746 13.85C107.426 14.17 108.136 14.65 108.876 15.29C109.096 15.47 109.286 15.56 109.446 15.56C109.846 15.56 110.106 14.96 110.226 13.76H110.916C110.836 14.96 110.796 17.06 110.796 20.06H110.106C109.906 19.02 109.706 18.25 109.506 17.75C109.306 17.25 109.006 16.74 108.606 16.22C108.046 15.48 107.376 14.92 106.596 14.54C105.816 14.14 104.996 13.94 104.136 13.94C102.956 13.94 101.926 14.3 101.046 15.02C100.186 15.74 99.5163 16.78 99.0363 18.14C98.5563 19.5 98.3163 21.1 98.3163 22.94C98.3163 24.82 98.5763 26.43 99.0963 27.77C99.6363 29.09 100.356 30.1 101.256 30.8C102.176 31.48 103.206 31.82 104.346 31.82C105.226 31.82 106.066 31.63 106.866 31.25C107.686 30.85 108.376 30.28 108.936 29.54C109.316 29.02 109.596 28.47 109.776 27.89C109.976 27.31 110.156 26.48 110.316 25.4H111.006C111.006 28.54 111.046 30.74 111.126 32H110.436C110.376 31.38 110.286 30.93 110.166 30.65C110.046 30.35 109.886 30.2 109.686 30.2C109.526 30.2 109.326 30.29 109.086 30.47C108.326 31.11 107.586 31.6 106.866 31.94C106.146 32.26 105.266 32.42 104.226 32.42C102.446 32.42 100.886 32.06 99.5463 31.34C98.2063 30.6 97.1663 29.53 96.4263 28.13C95.6863 26.71 95.3163 25.02 95.3163 23.06C95.3163 21.14 95.6963 19.45 96.4563 17.99C97.2163 16.51 98.2763 15.37 99.6363 14.57C100.996 13.75 102.536 13.34 104.256 13.34ZM130.884 13.76C130.744 15.08 130.674 16.26 130.674 17.3C130.674 18.34 130.704 19.16 130.764 19.76H130.074C129.954 18.36 129.764 17.29 129.504 16.55C129.244 15.81 128.824 15.28 128.244 14.96C127.664 14.62 126.834 14.45 125.754 14.45H123.834V28.52C123.834 29.36 123.914 29.97 124.074 30.35C124.234 30.73 124.514 30.99 124.914 31.13C125.314 31.27 125.964 31.36 126.864 31.4V32C125.824 31.94 124.354 31.91 122.454 31.91C120.454 31.91 118.974 31.94 118.014 32V31.4C118.914 31.36 119.564 31.27 119.964 31.13C120.364 30.99 120.644 30.73 120.804 30.35C120.964 29.97 121.044 29.36 121.044 28.52V14.45H119.124C118.044 14.45 117.214 14.62 116.634 14.96C116.054 15.28 115.634 15.81 115.374 16.55C115.114 17.29 114.924 18.36 114.804 19.76H114.114C114.174 19.12 114.204 18.3 114.204 17.3C114.204 16.26 114.134 15.08 113.994 13.76C115.654 13.82 118.474 13.85 122.454 13.85C126.414 13.85 129.224 13.82 130.884 13.76ZM140.809 14.36C140.089 14.4 139.559 14.48 139.219 14.6C138.899 14.72 138.679 14.95 138.559 15.29C138.439 15.63 138.379 16.18 138.379 16.94V28.82C138.379 29.58 138.439 30.13 138.559 30.47C138.679 30.81 138.899 31.04 139.219 31.16C139.559 31.28 140.089 31.36 140.809 31.4V32C139.889 31.94 138.619 31.91 136.999 31.91C135.279 31.91 133.999 31.94 133.159 32V31.4C133.879 31.36 134.399 31.28 134.719 31.16C135.059 31.04 135.289 30.81 135.409 30.47C135.529 30.13 135.589 29.58 135.589 28.82V16.94C135.589 16.18 135.529 15.63 135.409 15.29C135.289 14.95 135.059 14.72 134.719 14.6C134.399 14.48 133.879 14.4 133.159 14.36V13.76C133.999 13.82 135.279 13.85 136.999 13.85C138.599 13.85 139.869 13.82 140.809 13.76V14.36ZM152.362 13.34C153.342 13.34 154.172 13.51 154.852 13.85C155.532 14.17 156.242 14.65 156.982 15.29C157.202 15.47 157.392 15.56 157.552 15.56C157.952 15.56 158.212 14.96 158.332 13.76H159.022C158.942 14.96 158.902 17.06 158.902 20.06H158.212C158.012 19.02 157.812 18.25 157.612 17.75C157.412 17.25 157.112 16.74 156.712 16.22C156.152 15.48 155.482 14.92 154.702 14.54C153.922 14.14 153.102 13.94 152.242 13.94C151.062 13.94 150.032 14.3 149.152 15.02C148.292 15.74 147.622 16.78 147.142 18.14C146.662 19.5 146.422 21.1 146.422 22.94C146.422 24.82 146.682 26.43 147.202 27.77C147.742 29.09 148.462 30.1 149.362 30.8C150.282 31.48 151.312 31.82 152.452 31.82C153.332 31.82 154.172 31.63 154.972 31.25C155.792 30.85 156.482 30.28 157.042 29.54C157.422 29.02 157.702 28.47 157.882 27.89C158.082 27.31 158.262 26.48 158.422 25.4H159.112C159.112 28.54 159.152 30.74 159.232 32H158.542C158.482 31.38 158.392 30.93 158.272 30.65C158.152 30.35 157.992 30.2 157.792 30.2C157.632 30.2 157.432 30.29 157.192 30.47C156.432 31.11 155.692 31.6 154.972 31.94C154.252 32.26 153.372 32.42 152.332 32.42C150.552 32.42 148.992 32.06 147.652 31.34C146.312 30.6 145.272 29.53 144.532 28.13C143.792 26.71 143.422 25.02 143.422 23.06C143.422 21.14 143.802 19.45 144.562 17.99C145.322 16.51 146.382 15.37 147.742 14.57C149.102 13.75 150.642 13.34 152.362 13.34ZM177.579 29.48C178.119 30.72 178.809 31.36 179.649 31.4V32C178.849 31.94 177.779 31.91 176.439 31.91C174.719 31.91 173.439 31.94 172.599 32V31.4C173.339 31.36 173.879 31.26 174.219 31.1C174.579 30.94 174.759 30.67 174.759 30.29C174.759 29.97 174.619 29.5 174.339 28.88L172.809 25.46H165.519L164.499 27.71C164.159 28.49 163.989 29.13 163.989 29.63C163.989 30.15 164.169 30.56 164.529 30.86C164.909 31.14 165.509 31.32 166.329 31.4V32C165.729 31.94 164.819 31.91 163.599 31.91C162.379 31.91 161.509 31.94 160.989 32V31.4C161.529 31.26 161.989 30.96 162.369 30.5C162.749 30.02 163.109 29.39 163.449 28.61L170.079 13.61H170.559L177.579 29.48ZM172.569 24.86L169.179 17.24L165.759 24.86H172.569Z" fill="black"/>
<path d="M30.3809 47.708V51.668C30.3809 52.2253 30.4396 52.6287 30.5569 52.878C30.6742 53.1273 30.8796 53.296 31.1729 53.384C31.4662 53.472 31.9429 53.5307 32.6029 53.56V54C31.8402 53.956 30.7622 53.934 29.3689 53.934C28.1076 53.934 27.1689 53.956 26.5529 54V53.56C27.0809 53.5307 27.4622 53.472 27.6969 53.384C27.9462 53.296 28.1149 53.1273 28.2029 52.878C28.2909 52.6287 28.3349 52.2253 28.3349 51.668V40.756C28.3349 40.1987 28.2909 39.7953 28.2029 39.546C28.1149 39.2967 27.9462 39.128 27.6969 39.04C27.4622 38.952 27.0809 38.8933 26.5529 38.864V38.424C27.1689 38.468 28.0636 38.49 29.2369 38.49L31.6129 38.468C31.8916 38.4533 32.2069 38.446 32.5589 38.446C34.2749 38.446 35.5876 38.842 36.4969 39.634C37.4062 40.4113 37.8609 41.46 37.8609 42.78C37.8609 43.5867 37.6776 44.364 37.3109 45.112C36.9589 45.8453 36.3502 46.4613 35.4849 46.96C34.6342 47.4587 33.4976 47.708 32.0749 47.708H30.3809ZM32.0089 38.864C31.5542 38.864 31.2096 38.9153 30.9749 39.018C30.7549 39.1207 30.6009 39.304 30.5129 39.568C30.4249 39.832 30.3809 40.228 30.3809 40.756V47.268H31.8549C33.2922 47.268 34.2822 46.8867 34.8249 46.124C35.3822 45.3467 35.6609 44.3127 35.6609 43.022C35.6609 41.5993 35.3749 40.5507 34.8029 39.876C34.2456 39.2013 33.3142 38.864 32.0089 38.864ZM46.44 40.316C47.7894 40.316 48.97 40.5873 49.982 41.13C51.0087 41.658 51.8007 42.4427 52.358 43.484C52.9154 44.5107 53.194 45.7427 53.194 47.18C53.194 48.588 52.9007 49.8347 52.314 50.92C51.742 51.9907 50.9427 52.8267 49.916 53.428C48.8894 54.0147 47.7234 54.308 46.418 54.308C45.0687 54.308 43.8807 54.044 42.854 53.516C41.842 52.9733 41.0574 52.1887 40.5 51.162C39.9427 50.1207 39.664 48.8813 39.664 47.444C39.664 46.036 39.95 44.7967 40.522 43.726C41.1087 42.6407 41.9154 41.8047 42.942 41.218C43.9687 40.6167 45.1347 40.316 46.44 40.316ZM46.352 40.712C45.4574 40.712 44.6654 40.998 43.976 41.57C43.3014 42.1273 42.7807 42.912 42.414 43.924C42.0474 44.9213 41.864 46.0653 41.864 47.356C41.864 48.6613 42.0694 49.8127 42.48 50.81C42.8907 51.8073 43.448 52.5773 44.152 53.12C44.856 53.648 45.6407 53.912 46.506 53.912C47.4007 53.912 48.1854 53.6333 48.86 53.076C49.5494 52.504 50.0774 51.7193 50.444 50.722C50.8107 49.71 50.994 48.5587 50.994 47.268C50.994 45.9627 50.7887 44.8113 50.378 43.814C49.9674 42.8167 49.41 42.054 48.706 41.526C48.002 40.9833 47.2174 40.712 46.352 40.712ZM62.0975 40.316C62.8162 40.316 63.4248 40.4407 63.9235 40.69C64.4222 40.9247 64.9428 41.2767 65.4855 41.746C65.6468 41.878 65.7862 41.944 65.9035 41.944C66.1968 41.944 66.3875 41.504 66.4755 40.624H66.9815C66.9228 41.504 66.8935 43.044 66.8935 45.244H66.3875C66.2408 44.4813 66.0942 43.9167 65.9475 43.55C65.8008 43.1833 65.5808 42.8093 65.2875 42.428C64.8768 41.8853 64.3855 41.4747 63.8135 41.196C63.2415 40.9027 62.6402 40.756 62.0095 40.756C61.1442 40.756 60.3888 41.02 59.7435 41.548C59.1128 42.076 58.6215 42.8387 58.2695 43.836C57.9175 44.8333 57.7415 46.0067 57.7415 47.356C57.7415 48.7347 57.9322 49.9153 58.3135 50.898C58.7095 51.866 59.2375 52.6067 59.8975 53.12C60.5722 53.6187 61.3275 53.868 62.1635 53.868C62.8088 53.868 63.4248 53.7287 64.0115 53.45C64.6128 53.1567 65.1188 52.7387 65.5295 52.196C65.8082 51.8147 66.0135 51.4113 66.1455 50.986C66.2922 50.5607 66.4242 49.952 66.5415 49.16H67.0475C67.0475 51.4627 67.0768 53.076 67.1355 54H66.6295C66.5855 53.5453 66.5195 53.2153 66.4315 53.01C66.3435 52.79 66.2262 52.68 66.0795 52.68C65.9622 52.68 65.8155 52.746 65.6395 52.878C65.0822 53.3473 64.5395 53.7067 64.0115 53.956C63.4835 54.1907 62.8382 54.308 62.0755 54.308C60.7702 54.308 59.6262 54.044 58.6435 53.516C57.6608 52.9733 56.8982 52.1887 56.3555 51.162C55.8128 50.1207 55.5415 48.8813 55.5415 47.444C55.5415 46.036 55.8202 44.7967 56.3775 43.726C56.9348 42.6407 57.7122 41.8047 58.7095 41.218C59.7068 40.6167 60.8362 40.316 62.0975 40.316ZM80.9422 52.218C81.4556 52.8633 82.0276 53.3107 82.6582 53.56V54C81.9542 53.956 81.1329 53.934 80.1942 53.934C79.1969 53.934 78.2656 53.956 77.4002 54V53.56C77.8696 53.5453 78.2069 53.5087 78.4122 53.45C78.6176 53.3767 78.7202 53.274 78.7202 53.142C78.7202 52.9953 78.6249 52.8047 78.4342 52.57L75.5082 48.5C75.2149 48.0893 74.9069 47.796 74.5842 47.62C74.2616 47.4293 73.8142 47.3267 73.2422 47.312V51.668C73.2422 52.2253 73.2862 52.6287 73.3742 52.878C73.4622 53.1273 73.6236 53.296 73.8582 53.384C74.1076 53.472 74.4962 53.5307 75.0242 53.56V54C74.3496 53.956 73.4182 53.934 72.2302 53.934C70.9689 53.934 70.0302 53.956 69.4142 54V53.56C69.9422 53.5307 70.3236 53.472 70.5582 53.384C70.8076 53.296 70.9762 53.1273 71.0642 52.878C71.1522 52.6287 71.1962 52.2253 71.1962 51.668V42.956C71.1962 42.3987 71.1522 41.9953 71.0642 41.746C70.9762 41.4967 70.8076 41.328 70.5582 41.24C70.3236 41.152 69.9422 41.0933 69.4142 41.064V40.624C70.0302 40.668 70.9689 40.69 72.2302 40.69C73.4036 40.69 74.3349 40.668 75.0242 40.624V41.064C74.4962 41.0933 74.1076 41.152 73.8582 41.24C73.6236 41.328 73.4622 41.4967 73.3742 41.746C73.2862 41.9953 73.2422 42.3987 73.2422 42.956V46.938C73.7556 46.9087 74.2396 46.7913 74.6942 46.586C75.1489 46.366 75.6476 45.992 76.1902 45.464L78.8082 42.78C79.1896 42.428 79.3802 42.098 79.3802 41.79C79.3802 41.57 79.2702 41.394 79.0502 41.262C78.8302 41.13 78.5076 41.0567 78.0822 41.042V40.624C78.8742 40.668 79.7396 40.69 80.6782 40.69C81.3089 40.69 81.8296 40.668 82.2402 40.624V41.042C81.7122 41.1447 81.2722 41.2987 80.9202 41.504C80.5682 41.7093 80.1136 42.0833 79.5562 42.626L76.1022 46.08L80.9422 52.218ZM94.6328 51.404C94.6328 52.1667 94.6841 53.032 94.7868 54C93.8334 53.956 92.2274 53.934 89.9688 53.934C87.2554 53.934 85.2021 53.956 83.8088 54V53.56C84.3368 53.5307 84.7181 53.472 84.9528 53.384C85.2021 53.296 85.3708 53.1273 85.4588 52.878C85.5468 52.6287 85.5908 52.2253 85.5908 51.668V42.956C85.5908 42.3987 85.5468 41.9953 85.4588 41.746C85.3708 41.4967 85.2021 41.328 84.9528 41.24C84.7181 41.152 84.3368 41.0933 83.8088 41.064V40.624C85.2021 40.668 87.2554 40.69 89.9688 40.69C92.0221 40.69 93.4814 40.668 94.3468 40.624C94.2441 41.504 94.1928 42.296 94.1928 43C94.1928 43.572 94.2148 44.0267 94.2588 44.364H93.7528C93.6501 43.1613 93.3934 42.3253 92.9828 41.856C92.5868 41.372 91.9341 41.13 91.0248 41.13H89.4188C88.8908 41.13 88.5021 41.174 88.2528 41.262C88.0181 41.3353 87.8568 41.4967 87.7688 41.746C87.6808 41.9953 87.6368 42.3987 87.6368 42.956V47.048H89.4628C89.9321 47.048 90.2914 46.9307 90.5408 46.696C90.7901 46.4467 90.9588 46.1827 91.0468 45.904C91.1348 45.6107 91.2154 45.244 91.2888 44.804H91.7948C91.7508 45.3027 91.7288 45.8453 91.7288 46.432V47.268C91.7288 47.84 91.7728 48.6613 91.8608 49.732H91.3548C91.2668 49.028 91.0981 48.478 90.8488 48.082C90.5994 47.686 90.1374 47.488 89.4628 47.488H87.6368V51.668C87.6368 52.2253 87.6808 52.6287 87.7688 52.878C87.8568 53.1273 88.0181 53.296 88.2528 53.384C88.5021 53.4573 88.8908 53.494 89.4188 53.494H91.0248C91.7581 53.494 92.3374 53.3767 92.7628 53.142C93.1881 52.9073 93.5108 52.5333 93.7308 52.02C93.9508 51.492 94.1048 50.7587 94.1928 49.82H94.6988C94.6548 50.216 94.6328 50.744 94.6328 51.404ZM109.103 40.624C109 41.592 108.949 42.4573 108.949 43.22C108.949 43.9827 108.971 44.584 109.015 45.024H108.509C108.421 43.9973 108.281 43.2127 108.091 42.67C107.9 42.1273 107.592 41.7387 107.167 41.504C106.741 41.2547 106.133 41.13 105.341 41.13H103.933V51.448C103.933 52.064 103.991 52.5113 104.109 52.79C104.226 53.0687 104.431 53.2593 104.725 53.362C105.018 53.4647 105.495 53.5307 106.155 53.56V54C105.392 53.956 104.314 53.934 102.921 53.934C101.454 53.934 100.369 53.956 99.6648 54V53.56C100.325 53.5307 100.801 53.4647 101.095 53.362C101.388 53.2593 101.593 53.0687 101.711 52.79C101.828 52.5113 101.887 52.064 101.887 51.448V41.13H100.479C99.6868 41.13 99.0781 41.2547 98.6528 41.504C98.2274 41.7387 97.9194 42.1273 97.7288 42.67C97.5381 43.2127 97.3988 43.9973 97.3108 45.024H96.8048C96.8488 44.5547 96.8708 43.9533 96.8708 43.22C96.8708 42.4573 96.8194 41.592 96.7168 40.624C97.9341 40.668 100.002 40.69 102.921 40.69C105.825 40.69 107.885 40.668 109.103 40.624ZM122.576 40.316C123.397 40.316 124.057 40.4333 124.556 40.668C125.069 40.9027 125.612 41.262 126.184 41.746C126.375 41.8927 126.521 41.966 126.624 41.966C126.903 41.966 127.086 41.5187 127.174 40.624H127.68C127.621 41.46 127.592 42.9267 127.592 45.024H127.086C126.969 44.4667 126.822 43.9753 126.646 43.55C126.485 43.1247 126.265 42.7507 125.986 42.428C125.502 41.8707 124.996 41.4453 124.468 41.152C123.94 40.8587 123.295 40.712 122.532 40.712C121.652 40.712 120.889 40.9833 120.244 41.526C119.599 42.054 119.1 42.8167 118.748 43.814C118.396 44.8113 118.22 45.9847 118.22 47.334C118.22 49.578 118.631 51.228 119.452 52.284C120.273 53.34 121.498 53.868 123.126 53.868C123.757 53.868 124.321 53.8093 124.82 53.692C125.084 53.6333 125.26 53.538 125.348 53.406C125.451 53.274 125.502 53.0907 125.502 52.856V50.964C125.502 50.348 125.443 49.9007 125.326 49.622C125.209 49.3433 125.003 49.1527 124.71 49.05C124.417 48.9473 123.94 48.8813 123.28 48.852V48.412C124.072 48.456 125.106 48.478 126.382 48.478C127.379 48.478 128.142 48.456 128.67 48.412V48.852C128.333 48.8813 128.091 48.94 127.944 49.028C127.797 49.116 127.695 49.2847 127.636 49.534C127.577 49.7833 127.548 50.1867 127.548 50.744V54H127.108C127.079 53.648 126.969 53.472 126.778 53.472C126.69 53.472 126.529 53.5233 126.294 53.626C126.059 53.7287 125.898 53.7947 125.81 53.824C124.871 54.1467 123.911 54.308 122.928 54.308C120.728 54.308 119.027 53.7213 117.824 52.548C116.621 51.36 116.02 49.7027 116.02 47.576C116.02 46.1093 116.299 44.8333 116.856 43.748C117.413 42.648 118.183 41.8047 119.166 41.218C120.163 40.6167 121.3 40.316 122.576 40.316ZM143.303 41.064C142.79 41.0933 142.408 41.174 142.159 41.306C141.91 41.4233 141.741 41.6287 141.653 41.922C141.565 42.2007 141.521 42.6187 141.521 43.176V48.038C141.521 49.05 141.448 49.9153 141.301 50.634C141.169 51.338 140.942 51.954 140.619 52.482C140.267 53.0393 139.754 53.4867 139.079 53.824C138.419 54.1467 137.664 54.308 136.813 54.308C135.302 54.308 134.144 53.9853 133.337 53.34C132.692 52.768 132.259 52.1153 132.039 51.382C131.819 50.6487 131.709 49.556 131.709 48.104V42.956C131.709 42.3987 131.665 41.9953 131.577 41.746C131.489 41.4967 131.32 41.328 131.071 41.24C130.836 41.152 130.455 41.0933 129.927 41.064V40.624C130.543 40.668 131.482 40.69 132.743 40.69C133.916 40.69 134.848 40.668 135.537 40.624V41.064C135.009 41.0933 134.62 41.152 134.371 41.24C134.136 41.328 133.975 41.4967 133.887 41.746C133.799 41.9953 133.755 42.3987 133.755 42.956V48.478C133.755 49.5633 133.828 50.4653 133.975 51.184C134.122 51.888 134.43 52.46 134.899 52.9C135.383 53.3253 136.087 53.538 137.011 53.538C138.478 53.538 139.512 53.076 140.113 52.152C140.714 51.228 141.015 49.9373 141.015 48.28V43.176C141.015 42.384 140.868 41.8413 140.575 41.548C140.296 41.2547 139.776 41.0933 139.013 41.064V40.624C139.541 40.668 140.289 40.69 141.257 40.69C142.137 40.69 142.819 40.668 143.303 40.624V41.064ZM150.391 41.064C149.863 41.0933 149.475 41.152 149.225 41.24C148.991 41.328 148.829 41.4967 148.741 41.746C148.653 41.9953 148.609 42.3987 148.609 42.956V51.668C148.609 52.2253 148.653 52.6287 148.741 52.878C148.829 53.1273 148.991 53.296 149.225 53.384C149.475 53.472 149.863 53.5307 150.391 53.56V54C149.717 53.956 148.785 53.934 147.597 53.934C146.336 53.934 145.397 53.956 144.781 54V53.56C145.309 53.5307 145.691 53.472 145.925 53.384C146.175 53.296 146.343 53.1273 146.431 52.878C146.519 52.6287 146.563 52.2253 146.563 51.668V42.956C146.563 42.3987 146.519 41.9953 146.431 41.746C146.343 41.4967 146.175 41.328 145.925 41.24C145.691 41.152 145.309 41.0933 144.781 41.064V40.624C145.397 40.668 146.336 40.69 147.597 40.69C148.771 40.69 149.702 40.668 150.391 40.624V41.064ZM158.243 40.624C160.531 40.624 162.247 41.1813 163.391 42.296C164.549 43.396 165.129 45.0093 165.129 47.136C165.129 48.5147 164.85 49.7247 164.293 50.766C163.735 51.7927 162.921 52.592 161.851 53.164C160.795 53.7213 159.526 54 158.045 54L156.769 53.978C155.947 53.9487 155.346 53.934 154.965 53.934C153.762 53.934 152.853 53.956 152.237 54V53.56C152.765 53.5307 153.146 53.472 153.381 53.384C153.63 53.296 153.799 53.1273 153.887 52.878C153.975 52.6287 154.019 52.2253 154.019 51.668V42.956C154.019 42.3987 153.975 41.9953 153.887 41.746C153.799 41.4967 153.63 41.328 153.381 41.24C153.146 41.152 152.765 41.0933 152.237 41.064V40.624C152.75 40.668 153.461 40.69 154.371 40.69L156.241 40.668C157.238 40.6387 157.905 40.624 158.243 40.624ZM157.693 41.02C157.238 41.02 156.893 41.0713 156.659 41.174C156.439 41.2767 156.285 41.46 156.197 41.724C156.109 41.988 156.065 42.384 156.065 42.912V51.712C156.065 52.24 156.109 52.636 156.197 52.9C156.285 53.164 156.439 53.3473 156.659 53.45C156.893 53.5527 157.245 53.604 157.715 53.604C159.049 53.604 160.098 53.3693 160.861 52.9C161.623 52.416 162.159 51.712 162.467 50.788C162.775 49.864 162.928 48.676 162.928 47.224C162.928 45.0827 162.533 43.5133 161.741 42.516C160.949 41.5187 159.599 41.02 157.693 41.02ZM177.885 51.404C177.885 52.1667 177.936 53.032 178.039 54C177.085 53.956 175.479 53.934 173.221 53.934C170.507 53.934 168.454 53.956 167.061 54V53.56C167.589 53.5307 167.97 53.472 168.205 53.384C168.454 53.296 168.623 53.1273 168.711 52.878C168.799 52.6287 168.843 52.2253 168.843 51.668V42.956C168.843 42.3987 168.799 41.9953 168.711 41.746C168.623 41.4967 168.454 41.328 168.205 41.24C167.97 41.152 167.589 41.0933 167.061 41.064V40.624C168.454 40.668 170.507 40.69 173.221 40.69C175.274 40.69 176.733 40.668 177.599 40.624C177.496 41.504 177.445 42.296 177.445 43C177.445 43.572 177.467 44.0267 177.511 44.364H177.005C176.902 43.1613 176.645 42.3253 176.235 41.856C175.839 41.372 175.186 41.13 174.277 41.13H172.671C172.143 41.13 171.754 41.174 171.505 41.262C171.27 41.3353 171.109 41.4967 171.021 41.746C170.933 41.9953 170.889 42.3987 170.889 42.956V47.048H172.715C173.184 47.048 173.543 46.9307 173.793 46.696C174.042 46.4467 174.211 46.1827 174.299 45.904C174.387 45.6107 174.467 45.244 174.541 44.804H175.047C175.003 45.3027 174.981 45.8453 174.981 46.432V47.268C174.981 47.84 175.025 48.6613 175.113 49.732H174.607C174.519 49.028 174.35 48.478 174.101 48.082C173.851 47.686 173.389 47.488 172.715 47.488H170.889V51.668C170.889 52.2253 170.933 52.6287 171.021 52.878C171.109 53.1273 171.27 53.296 171.505 53.384C171.754 53.4573 172.143 53.494 172.671 53.494H174.277C175.01 53.494 175.589 53.3767 176.015 53.142C176.44 52.9073 176.763 52.5333 176.983 52.02C177.203 51.492 177.357 50.7587 177.445 49.82H177.951C177.907 50.216 177.885 50.744 177.885 51.404Z" fill="#333333"/>
</svg>
